<svg width="457" height="302" viewBox="0 0 457 302" fill="none" xmlns="http://www.w3.org/2000/svg">
<path d="M151.7 120.21V134.15L442.65 134.27L456.65 120.27L151.7 120.21Z" fill="#0164FF"/>
<path d="M239.7 98.88H253.87V17.21H456.7V2.71002H253.07C252.49 2.71002 251.91 2.78002 251.36 2.96002C251.3 2.98002 251.24 3.00002 251.18 3.02002C244.22 5.32002 239.7 12.07 239.7 19.39V98.88Z" fill="#0164FF"/>
<path d="M282.72 49.14V99.22H296.72V63.22H456.8V49.14H282.72Z" fill="#0164FF"/>
<path d="M281.55 166.22V255.22H456.88V241.06H296.72V180.39H390.72L405.38 166.06L281.55 166.22Z" fill="#0164FF"/>
<path d="M151.61 166.34V180.12H236.05C234.8 184.52 232.71 190.51 229.16 197.12C228.13 199.03 219.39 214.91 203.16 226.56C171.94 248.98 133.77 240.83 131.16 240.23C83.97 229.41 66.51 185.24 65.72 183.12C52.82 148.75 65.65 118.89 67.94 113.79C84.66 76.58 120.05 65.19 126.16 63.35C174.3 48.8 213.43 79.87 216.72 82.57V65.46C212.34 62.45 206.02 58.58 197.94 55.13C192.32 52.73 167.77 42.82 137.05 47.57C125.45 49.37 89.17 56.94 65.49 90.01C42.94 121.51 39.24 165.79 58.96 201.73C81.74 243.25 130.45 263.95 173.79 254.31C205.06 247.36 233.15 224.69 245.62 195.14C250.44 183.73 252.05 173.37 252.62 166.22L151.59 166.33L151.61 166.34Z" fill="#0164FF"/>
<path d="M216.63 29.14V14.47C207.92 10.59 195.65 6.07001 180.49 3.33001C171.95 1.79001 146.1 -2.15999 116.38 4.89001C57.08 18.95 25.81 66.47 23.49 70.11C-10.89 124.13 3.07002 180.1 5.60002 189.55C7.79002 197.76 24.47 256.21 84.04 285.88C92.91 290.3 134.99 310.14 186.82 297.21C211.2 291.13 229.02 279.97 239.6 272.1L239.82 285.77C241.01 292.65 246 297.89 252.04 298.88H456.82V285.21H253.82V238.99C249.86 243.92 244.13 250.33 236.38 256.88C231.45 261.05 210.77 277.89 180.27 284.88C130.71 296.24 90.02 273.6 82.83 269.44C75.51 265.21 32.11 239.16 18.27 184.22C15.47 173.12 8.63002 139.98 23.16 102.33C45.19 45.24 98.08 25.19 105.72 22.44C160.09 2.86001 206.65 24.42 215.16 28.55L216.63 29.13V29.14Z" fill="#0164FF"/>
</svg>
